HIERARCHY
ROOT reference
{
  OFFSET 0 0 0
  CHANNELS 6 Xposition Yposition Zposition Zrotation Xrotation Yrotation
  JOINT Hips
  {
    OFFSET 352.076 86.5813 226.294
    CHANNELS 3 Zrotation Xrotation Yrotation
    JOINT RightUpLeg
    {
      OFFSET -9.24446 -1.53332 -0.0100408
      CHANNELS 3 Zrotation Xrotation Yrotation
      JOINT RightLeg
      {
        OFFSET 0.0379954 -41.8775 0.0555708
        CHANNELS 3 Zrotation Xrotation Yrotation
        JOINT RightFoot
        {
          OFFSET 0.0737403 -43.7597 -0.208372
          CHANNELS 3 Zrotation Xrotation Yrotation
          End Site
          {
            OFFSET 0 -7.69 17.5
          }
        }
      }
    }
    JOINT LeftUpLeg
    {
      OFFSET 9.31004 -1.65148 -0.0333589
      CHANNELS 3 Zrotation Xrotation Yrotation
      JOINT LeftLeg
      {
        OFFSET 0.0881386 -41.8624 -0.0616493
        CHANNELS 3 Zrotation Xrotation Yrotation
        JOINT LeftFoot
        {
          OFFSET 0.763074 -39.9619 0.249975
          CHANNELS 3 Zrotation Xrotation Yrotation
          End Site
          {
            OFFSET 0 -7.69 17.5
          }
        }
      }
    }
    JOINT Spine
    {
      OFFSET 0.105097 14.2958 0.096313
      CHANNELS 3 Zrotation Xrotation Yrotation
      JOINT Spine1
      {
        OFFSET 0.0609256 9.72986 0.0283835
        CHANNELS 3 Zrotation Xrotation Yrotation
        JOINT Spine2
        {
          OFFSET 0.0349843 10.1145 -0.0203086
          CHANNELS 3 Zrotation Xrotation Yrotation
          JOINT Spine3
          {
            OFFSET 0.0323734 9.71864 0.0196425
            CHANNELS 3 Zrotation Xrotation Yrotation
            JOINT Neck
            {
              OFFSET 0.219168 10.3708 0.0833364
              CHANNELS 3 Zrotation Xrotation Yrotation
              JOINT Head
              {
                OFFSET 0.200748 9.48753 0.0966912
                CHANNELS 3 Zrotation Xrotation Yrotation
                End Site
                {
                  OFFSET 0 15.95 0
                }
              }
            }
            JOINT RightShoulder
            {
              OFFSET -3.14734 6.94135 0.063802
              CHANNELS 3 Zrotation Xrotation Yrotation
              JOINT RightArm
              {
                OFFSET -12.765 0.137663 0.228635
                CHANNELS 3 Zrotation Xrotation Yrotation
                JOINT RightForeArm
                {
                  OFFSET -26.5344 -0.389186 -0.00603507
                  CHANNELS 3 Zrotation Xrotation Yrotation
                  JOINT RightHand
                  {
                    OFFSET -26.1352 -0.0585664 0.0704552
                    CHANNELS 3 Zrotation Xrotation Yrotation
                    JOINT RightHandThumb1
                    {
                      OFFSET -2.48905 0.190105 3.12053
                      CHANNELS 3 Zrotation Xrotation Yrotation
                      JOINT RightHandThumb2
                      {
                        OFFSET -3.68274 0 0
                        CHANNELS 3 Zrotation Xrotation Yrotation
                        JOINT RightHandThumb3
                        {
                          OFFSET -2.55832 0 0
                          CHANNELS 3 Zrotation Xrotation Yrotation
                          End Site
                          {
                            OFFSET -2.194 0 0
                          }
                        }
                      }
                    }
                    JOINT RightInHandIndex
                    {
                      OFFSET -3.22368 0.508421 1.97842
                      CHANNELS 3 Zrotation Xrotation Yrotation
                      JOINT RightHandIndex1
                      {
                        OFFSET -5.21684 -0.091368 0.999158
                        CHANNELS 3 Zrotation Xrotation Yrotation
                        JOINT RightHandIndex2
                        {
                          OFFSET -3.61937 0 0
                          CHANNELS 3 Zrotation Xrotation Yrotation
                          JOINT RightHandIndex3
                          {
                            OFFSET -2.0521 0 0
                            CHANNELS 3 Zrotation Xrotation Yrotation
                            End Site
                            {
                              OFFSET -1.805 0 0
                            }
                          }
                        }
                      }
                    }
                    JOINT RightInHandMiddle
                    {
                      OFFSET -3.38211 0.517263 0.756737
                      CHANNELS 3 Zrotation Xrotation Yrotation
                      JOINT RightHandMiddle1
                      {
                        OFFSET -5.17411 -0.084 0.313895
                        CHANNELS 3 Zrotation Xrotation Yrotation
                        JOINT RightHandMiddle2
                        {
                          OFFSET -3.94947 0 0
                          CHANNELS 3 Zrotation Xrotation Yrotation
                          JOINT RightHandMiddle3
                          {
                            OFFSET -2.47579 0 0
                            CHANNELS 3 Zrotation Xrotation Yrotation
                            End Site
                            {
                              OFFSET -1.975 0 0
                            }
                          }
                        }
                      }
                    }
                    JOINT RightInHandRing
                    {
                      OFFSET -3.36516 0.537895 -0.128947
                      CHANNELS 3 Zrotation Xrotation Yrotation
                      JOINT RightHandRing1
                      {
                        OFFSET -4.63474 -0.022105 -0.478947
                        CHANNELS 3 Zrotation Xrotation Yrotation
                        JOINT RightHandRing2
                        {
                          OFFSET -3.44238 0 0
                          CHANNELS 3 Zrotation Xrotation Yrotation
                          JOINT RightHandRing3
                          {
                            OFFSET -2.3881 0 0
                            CHANNELS 3 Zrotation Xrotation Yrotation
                            End Site
                            {
                              OFFSET -1.857 0 0
                            }
                          }
                        }
                      }
                    }
                    JOINT RightInHandPinky
                    {
                      OFFSET -3.16105 0.469368 -1.20179
                      CHANNELS 3 Zrotation Xrotation Yrotation
                      JOINT RightHandPinky1
                      {
                        OFFSET -4.14105 -0.022105 -1.09053
                        CHANNELS 3 Zrotation Xrotation Yrotation
                        JOINT RightHandPinky2
                        {
                          OFFSET -2.75653 0 0
                          CHANNELS 3 Zrotation Xrotation Yrotation
                          JOINT RightHandPinky3
                          {
                            OFFSET -1.74189 0 0
                            CHANNELS 3 Zrotation Xrotation Yrotation
                            End Site
                            {
                              OFFSET -1.645 0 0
                            }
                          }
                        }
                      }
                    }
                  }
                }
              }
            }
            JOINT LeftShoulder
            {
              OFFSET 3.26179 6.89719 -0.0373062
              CHANNELS 3 Zrotation Xrotation Yrotation
              JOINT LeftArm
              {
                OFFSET 12.4839 0.0196156 -0.0323257
                CHANNELS 3 Zrotation Xrotation Yrotation
                JOINT LeftForeArm
                {
                  OFFSET 26.5039 -0.120667 0.247609
                  CHANNELS 3 Zrotation Xrotation Yrotation
                  JOINT LeftHand
                  {
                    OFFSET 25.9984 -0.032285 0.00286418
                    CHANNELS 3 Zrotation Xrotation Yrotation
                    JOINT LeftHandThumb1
                    {
                      OFFSET 2.48905 0.190105 3.12053
                      CHANNELS 3 Zrotation Xrotation Yrotation
                      JOINT LeftHandThumb2
                      {
                        OFFSET 3.68274 0 0
                        CHANNELS 3 Zrotation Xrotation Yrotation
                        JOINT LeftHandThumb3
                        {
                          OFFSET 2.55832 0 0
                          CHANNELS 3 Zrotation Xrotation Yrotation
                          End Site
                          {
                            OFFSET 2.194 0 0
                          }
                        }
                      }
                    }
                    JOINT LeftInHandIndex
                    {
                      OFFSET 3.22368 0.508421 1.97842
                      CHANNELS 3 Zrotation Xrotation Yrotation
                      JOINT LeftHandIndex1
                      {
                        OFFSET 5.21684 -0.091368 0.999158
                        CHANNELS 3 Zrotation Xrotation Yrotation
                        JOINT LeftHandIndex2
                        {
                          OFFSET 3.61937 0 0
                          CHANNELS 3 Zrotation Xrotation Yrotation
                          JOINT LeftHandIndex3
                          {
                            OFFSET 2.0521 0 0
                            CHANNELS 3 Zrotation Xrotation Yrotation
                            End Site
                            {
                              OFFSET 1.805 0 0
                            }
                          }
                        }
                      }
                    }
                    JOINT LeftInHandMiddle
                    {
                      OFFSET 3.38211 0.517263 0.756737
                      CHANNELS 3 Zrotation Xrotation Yrotation
                      JOINT LeftHandMiddle1
                      {
                        OFFSET 5.17411 -0.084 0.313895
                        CHANNELS 3 Zrotation Xrotation Yrotation
                        JOINT LeftHandMiddle2
                        {
                          OFFSET 3.94947 0 0
                          CHANNELS 3 Zrotation Xrotation Yrotation
                          JOINT LeftHandMiddle3
                          {
                            OFFSET 2.47579 0 0
                            CHANNELS 3 Zrotation Xrotation Yrotation
                            End Site
                            {
                              OFFSET 1.975 0 0
                            }
                          }
                        }
                      }
                    }
                    JOINT LeftInHandRing
                    {
                      OFFSET 3.36516 0.537895 -0.128947
                      CHANNELS 3 Zrotation Xrotation Yrotation
                      JOINT LeftHandRing1
                      {
                        OFFSET 4.63474 -0.022105 -0.478947
                        CHANNELS 3 Zrotation Xrotation Yrotation
                        JOINT LeftHandRing2
                        {
                          OFFSET 3.44238 0 0
                          CHANNELS 3 Zrotation Xrotation Yrotation
                          JOINT LeftHandRing3
                          {
                            OFFSET 2.3881 0 0
                            CHANNELS 3 Zrotation Xrotation Yrotation
                            End Site
                            {
                              OFFSET 1.857 0 0
                            }
                          }
                        }
                      }
                    }
                    JOINT LeftInHandPinky
                    {
                      OFFSET 3.16105 0.469368 -1.20179
                      CHANNELS 3 Zrotation Xrotation Yrotation
                      JOINT LeftHandPinky1
                      {
                        OFFSET 4.14105 -0.022105 -1.09053
                        CHANNELS 3 Zrotation Xrotation Yrotation
                        JOINT LeftHandPinky2
                        {
                          OFFSET 2.75653 0 0
                          CHANNELS 3 Zrotation Xrotation Yrotation
                          JOINT LeftHandPinky3
                          {
                            OFFSET 1.74189 0 0
                            CHANNELS 3 Zrotation Xrotation Yrotation
                            End Site
                            {
                              OFFSET 1.645 0 0
                            }
                          }
                        }
                      }
                    }
                  }
                }
              }
            }
          }
        }
      }
    }
  }
}
MOTION
Frames: 2
Frame Time: 0.00833333
7.500000000000000000e+02 0.000000000000000000e+00 0.000000000000000000e+00 0.000000000000000000e+00 0.000000000000000000e+00 0.000000000000000000e+00 -1.989888163526666864e-01 -9.200523357084794185e+00 -1.962745823277302293e+01 1.985609762018614788e+01 5.864705581459524808e+00 2.069087650692013014e+01 -2.985756993889173927e+00 -7.023634303829767944e+00 1.708604030749932390e+00 -1.156934262127989665e+00 7.358482042742650719e+00 9.361706213715523361e+00 9.065595300566545944e+00 1.960681022071172919e+01 1.140676755278669852e+01 -1.541237652233960276e+01 2.299823498692416202e+00 1.274918056014798928e+01 1.340036746063058004e+00 -8.465465666829395275e+00 4.586361121120820172e+00 -4.966454699743009016e+00 -3.108773048141007855e+00 3.718895442229646076e+00 -1.185839663309832925e+00 -8.501044664222704439e-01 9.395899530431348623e-01 -1.994894234998708882e+00 -1.470437100052303991e+00 1.323297375297000089e+00 -6.242215390538140979e-02 -1.310210241992983693e-01 6.430715007073873890e-01 4.953192638077136278e-02 -1.077155509962585356e+00 1.309252905337433504e+01 -1.052525422790873577e+00 2.653132954117020770e+00 3.482992697485972400e+00 -8.200353407299897368e-01 3.150078601380741805e+00 2.083466168781055727e-01 -1.720572615756841728e+01 -1.630582814398183800e+01 -7.061254011723693269e-01 -1.115523190511977880e+01 1.136261833779860631e+01 1.410466302293245633e+01 9.729167838245233568e+00 9.062188295066500032e+00 -1.342084691480554071e+01 0.000000000000000000e+00 0.000000000000000000e+00 0.000000000000000000e+00 -1.204361649338639891e-14 -5.945239389805954868e-15 0.000000000000000000e+00 -9.984082103789904661e-15 -7.690924596118035114e-15 0.000000000000000000e+00 -2.043359403065028570e-15 -2.841623122505569796e-15 2.233707518058681367e-15 0.000000000000000000e+00 0.000000000000000000e+00 0.000000000000000000e+00 0.000000000000000000e+00 2.554370175865043273e-15 -9.591897185794224013e-16 0.000000000000000000e+00 -4.837049248364834241e-15 -4.846142944171270614e-16 -2.043359403065028570e-15 -2.841623122505569796e-15 2.233707518058681367e-15 0.000000000000000000e+00 -7.815268998038351091e-16 4.424957889096514851e-15 0.000000000000000000e+00 1.368453403954475073e-15 -4.980805507450759492e-15 0.000000000000000000e+00 -1.926375407923885725e-15 2.087804333754992635e-15 -2.043359403065028570e-15 -2.841623122505569796e-15 2.233707518058681367e-15 0.000000000000000000e+00 0.000000000000000000e+00 0.000000000000000000e+00 0.000000000000000000e+00 3.001460787126644283e-15 -3.144565000678857949e-16 0.000000000000000000e+00 2.214282115811213451e-15 -1.349025101340840535e-15 -2.043359403065028570e-15 -2.841623122505569796e-15 2.233707518058681367e-15 0.000000000000000000e+00 0.000000000000000000e+00 0.000000000000000000e+00 0.000000000000000000e+00 -1.891337941322201539e-15 4.441088736924743281e-15 0.000000000000000000e+00 1.823011358629996869e-15 4.705132772218024717e-15 -3.062087990808409099e+00 -2.194524006706546349e+00 -1.552413259131490975e+00 -6.818723818206705367e+00 2.473140136409507917e-01 -8.145995596492015878e+00 -1.886999072890495910e+01 1.116842620566477651e+00 -5.579101609541901752e+01 2.440187056511606833e+00 -5.190630092852890343e-01 -1.121577687360869469e+01 0.000000000000000000e+00 0.000000000000000000e+00 0.000000000000000000e+00 -7.084422971670033040e-15 4.014607855751414823e-15 0.000000000000000000e+00 -6.045288413898931964e-15 6.337436948465804030e-15 0.000000000000000000e+00 -5.820321176884435136e-16 -3.344944293821864137e-15 1.265561617164251632e-15 0.000000000000000000e+00 0.000000000000000000e+00 0.000000000000000000e+00 0.000000000000000000e+00 -2.719717828959377235e-15 -9.490184562751728952e-15 0.000000000000000000e+00 3.379520454895919719e-15 -4.076102326567740831e-15 -5.820321176884435136e-16 -3.344944293821864137e-15 1.265561617164251632e-15 0.000000000000000000e+00 2.674834814627195716e-16 -1.201367846176598611e-14 0.000000000000000000e+00 -4.570927955188131374e-15 -7.740661624758167140e-15 0.000000000000000000e+00 -1.991458460449369588e-15 -2.932913168425215894e-15 -5.820321176884435136e-16 -3.344944293821864137e-15 1.265561617164251632e-15 0.000000000000000000e+00 0.000000000000000000e+00 0.000000000000000000e+00 0.000000000000000000e+00 -1.223351958883533140e-15 -9.111875447948977518e-15 0.000000000000000000e+00 -3.507717155147535380e-15 1.509290842511491104e-15 -5.820321176884435136e-16 -3.344944293821864137e-15 1.265561617164251632e-15 0.000000000000000000e+00 0.000000000000000000e+00 0.000000000000000000e+00 0.000000000000000000e+00 1.628761005609731775e-15 -5.637864811701572569e-15 0.000000000000000000e+00 -1.848940974583692705e-15 2.400232616900129930e-15
7.500000000000000000e+02 0.000000000000000000e+00 0.000000000000000000e+00 0.000000000000000000e+00 0.000000000000000000e+00 0.000000000000000000e+00 2.319009008801640181e-01 -9.040740248293095860e+00 -1.947584890880406405e+01 1.999185339630148661e+01 4.977952175877000229e+00 2.057131237826198955e+01 -3.127159695793591432e+00 -6.647307769727364146e+00 1.719038226353442722e+00 -1.090845014060880969e+00 7.251996238418568552e+00 9.440358119080906718e+00 9.545637506608507294e+00 1.888975202197554637e+01 1.159570867025879437e+01 -1.512712605435317670e+01 2.633615444016869755e+00 1.243708016651848602e+01 1.437643840339968948e+00 -8.448797962273696172e+00 4.827484556116596437e+00 -4.850947942199797858e+00 -3.163198825149945215e+00 3.312714624560153087e+00 -1.162945824139183681e+00 -8.558934079799990213e-01 8.343622576152157633e-01 -1.955170517064215296e+00 -1.475671317632876400e+00 1.141127929293315191e+00 -7.189339134535639719e-02 -1.425853063138209087e-01 6.851893507506011671e-01 2.086570484263705616e-02 -1.115216689549829887e+00 1.262880067877691204e+01 -1.295551775490924040e+00 2.340727266938544382e+00 4.649673819040069489e+00 -6.563791083945665905e-01 3.039049627261067421e+00 -7.760815652000130349e-02 -1.672568044173766921e+01 -1.601271214389181452e+01 -9.920428761859895195e-01 -1.119685302982709807e+01 1.150387427752371217e+01 1.498910755864168287e+01 9.416688467997936129e+00 8.829175477249362913e+00 -1.214925022894875895e+01 0.000000000000000000e+00 0.000000000000000000e+00 0.000000000000000000e+00 -1.277039508899965367e-14 -5.768454680837374305e-15 0.000000000000000000e+00 -9.554428273815461889e-15 -7.466741979172929786e-15 0.000000000000000000e+00 -2.185637622503984326e-15 -3.285590590376149489e-15 2.427747594219372136e-15 0.000000000000000000e+00 0.000000000000000000e+00 0.000000000000000000e+00 0.000000000000000000e+00 2.425136710362273721e-15 -7.047755034063006073e-16 0.000000000000000000e+00 -4.648860979899378615e-15 -3.255906781815827322e-16 -2.185637622503984326e-15 -3.285590590376149489e-15 2.427747594219372136e-15 0.000000000000000000e+00 -7.497030071367455128e-16 4.363208435137872810e-15 0.000000000000000000e+00 1.582262853093609230e-15 -4.816688024519254892e-15 0.000000000000000000e+00 -1.999483473959940210e-15 1.968033483790243854e-15 -2.185637622503984326e-15 -3.285590590376149489e-15 2.427747594219372136e-15 0.000000000000000000e+00 0.000000000000000000e+00 0.000000000000000000e+00 0.000000000000000000e+00 3.237036823640019989e-15 -1.449906641302367190e-16 0.000000000000000000e+00 2.132376810523119633e-15 -1.111790326657810330e-15 -2.185637622503984326e-15 -3.285590590376149489e-15 2.427747594219372136e-15 0.000000000000000000e+00 0.000000000000000000e+00 0.000000000000000000e+00 0.000000000000000000e+00 -1.751475538706486855e-15 4.626086811050072454e-15 0.000000000000000000e+00 2.284317365779276730e-15 4.713230841347656165e-15 -3.127013832737159937e+00 -2.237598606267593215e+00 -1.665357786667878814e+00 -6.319371515303410014e+00 2.248063689285429989e-01 -8.967965284705279316e+00 -1.659385364670465179e+01 1.935803715728528163e+00 -5.302097166407664020e+01 2.191950502208616758e+00 -3.956276198434980351e-01 -1.125908523377845505e+01 0.000000000000000000e+00 0.000000000000000000e+00 0.000000000000000000e+00 -6.746746159118766766e-15 3.502617634476070672e-15 0.000000000000000000e+00 -6.064466247386055351e-15 5.905850033477147711e-15 0.000000000000000000e+00 -4.740568786029031046e-16 -3.301346854170706095e-15 1.093168143126387815e-15 0.000000000000000000e+00 0.000000000000000000e+00 0.000000000000000000e+00 0.000000000000000000e+00 -3.010044215097153672e-15 -9.196509754365270748e-15 0.000000000000000000e+00 3.472299975516414030e-15 -3.968078896382298662e-15 -4.740568786029031046e-16 -3.301346854170706095e-15 1.093168143126387815e-15 0.000000000000000000e+00 5.427159496215141133e-16 -1.173292242961946781e-14 0.000000000000000000e+00 -4.549070898368759713e-15 -7.580082345185466992e-15 0.000000000000000000e+00 -1.968590167681679671e-15 -2.807706997428103779e-15 -4.740568786029031046e-16 -3.301346854170706095e-15 1.093168143126387815e-15 0.000000000000000000e+00 0.000000000000000000e+00 0.000000000000000000e+00 0.000000000000000000e+00 -9.067668866899681475e-16 -8.992465550580968423e-15 0.000000000000000000e+00 -3.855871593351957341e-15 1.517203375056396322e-15 -4.740568786029031046e-16 -3.301346854170706095e-15 1.093168143126387815e-15 0.000000000000000000e+00 0.000000000000000000e+00 0.000000000000000000e+00 0.000000000000000000e+00 2.095655429308068261e-15 -5.735624107547468477e-15 0.000000000000000000e+00 -1.695697190077545654e-15 2.740463988723750885e-15
